<svg width="722" height="176" viewBox="0 0 722 176" fill="none" xmlns="http://www.w3.org/2000/svg">
<path d="M253.176 14.3747V27.7223H229.048V38.332H246.845V51.0807H229.048V74.6958H212.278V14.3747H253.176Z" fill="#EB4444"/>
<path d="M298.4 64.8562H277.009L273.758 74.6958H256.132L278.122 14.3747H297.459L319.362 74.6958H301.651L298.4 64.8562ZM294.207 52.0219L287.705 32.5138L281.287 52.0219H294.207Z" fill="#FFB700"/>
<path d="M380.7 74.6958H363.93L341.599 40.9844V74.6958H324.828V14.3747H341.599L363.93 48.5139V14.3747H380.7V74.6958Z" fill="#13C4A1"/>
<path d="M428.756 34.225C427.786 32.6279 426.446 31.4015 424.735 30.5459C423.08 29.6903 421.112 29.2624 418.831 29.2624C414.61 29.2624 411.273 30.6314 408.82 33.3694C406.424 36.1074 405.226 39.7866 405.226 44.4069C405.226 49.5977 406.51 53.562 409.077 56.3C411.701 58.9809 415.494 60.3214 420.457 60.3214C426.332 60.3214 430.524 57.669 433.034 52.3642H416.178V40.2999H447.494V56.5567C446.182 59.751 444.243 62.7457 441.676 65.5407C439.166 68.3357 435.972 70.6459 432.093 72.4712C428.214 74.2395 423.793 75.1236 418.831 75.1236C412.784 75.1236 407.423 73.8402 402.745 71.2733C398.125 68.6494 394.531 65.0273 391.964 60.407C389.455 55.7296 388.2 50.3962 388.2 44.4069C388.2 38.4746 389.455 33.1983 391.964 28.578C394.531 23.9006 398.125 20.2785 402.745 17.7116C407.366 15.0877 412.699 13.7758 418.745 13.7758C426.332 13.7758 432.606 15.6011 437.569 19.2517C442.531 22.9023 445.612 27.8935 446.81 34.225H428.756Z" fill="#FF612F"/>
<path d="M245.494 100.155V106.521H232.831V147.728H225.028V106.521H212.296V100.155H245.494ZM261.2 106.452V120.416H277.628V126.782H261.2V141.362H279.681V147.728H253.397V100.087H279.681V106.452H261.2ZM286.692 123.839C286.692 119.184 287.764 115.009 289.909 111.312C292.099 107.616 295.042 104.741 298.739 102.688C302.481 100.589 306.565 99.5391 310.991 99.5391C316.056 99.5391 320.551 100.794 324.476 103.304C328.446 105.768 331.321 109.282 333.1 113.845H323.723C322.491 111.335 320.779 109.464 318.589 108.232C316.399 107 313.866 106.384 310.991 106.384C307.842 106.384 305.036 107.091 302.572 108.506C300.108 109.921 298.168 111.951 296.754 114.598C295.385 117.245 294.7 120.325 294.7 123.839C294.7 127.352 295.385 130.433 296.754 133.079C298.168 135.726 300.108 137.78 302.572 139.24C305.036 140.654 307.842 141.362 310.991 141.362C313.866 141.362 316.399 140.746 318.589 139.514C320.779 138.282 322.491 136.411 323.723 133.901H333.1C331.321 138.464 328.446 141.978 324.476 144.442C320.551 146.906 316.056 148.138 310.991 148.138C306.519 148.138 302.435 147.111 298.739 145.058C295.042 142.959 292.099 140.061 289.909 136.365C287.764 132.669 286.692 128.493 286.692 123.839ZM380.223 100.155V147.728H372.42V126.919H350.037V147.728H342.234V100.155H350.037V120.553H372.42V100.155H380.223ZM429.581 147.728H421.778L398.299 112.202V147.728H390.496V100.087H398.299L421.778 135.544V100.087H429.581V147.728ZM461.526 148.207C457.1 148.207 453.016 147.18 449.274 145.126C445.578 143.027 442.634 140.13 440.444 136.433C438.299 132.691 437.227 128.493 437.227 123.839C437.227 119.184 438.299 115.009 440.444 111.312C442.634 107.616 445.578 104.741 449.274 102.688C453.016 100.589 457.1 99.5391 461.526 99.5391C465.999 99.5391 470.083 100.589 473.779 102.688C477.521 104.741 480.464 107.616 482.609 111.312C484.754 115.009 485.826 119.184 485.826 123.839C485.826 128.493 484.754 132.691 482.609 136.433C480.464 140.13 477.521 143.027 473.779 145.126C470.083 147.18 465.999 148.207 461.526 148.207ZM461.526 141.43C464.675 141.43 467.482 140.723 469.946 139.308C472.41 137.848 474.327 135.795 475.696 133.148C477.11 130.455 477.817 127.352 477.817 123.839C477.817 120.325 477.11 117.245 475.696 114.598C474.327 111.951 472.41 109.921 469.946 108.506C467.482 107.091 464.675 106.384 461.526 106.384C458.378 106.384 455.571 107.091 453.107 108.506C450.643 109.921 448.704 111.951 447.289 114.598C445.92 117.245 445.236 120.325 445.236 123.839C445.236 127.352 445.92 130.455 447.289 133.148C448.704 135.795 450.643 137.848 453.107 139.308C455.571 140.723 458.378 141.43 461.526 141.43ZM501.308 141.43H517.394V147.728H493.505V100.155H501.308V141.43ZM545.618 148.207C541.191 148.207 537.107 147.18 533.365 145.126C529.669 143.027 526.726 140.13 524.535 136.433C522.391 132.691 521.318 128.493 521.318 123.839C521.318 119.184 522.391 115.009 524.535 111.312C526.726 107.616 529.669 104.741 533.365 102.688C537.107 100.589 541.191 99.5391 545.618 99.5391C550.09 99.5391 554.174 100.589 557.87 102.688C561.612 104.741 564.555 107.616 566.7 111.312C568.845 115.009 569.917 119.184 569.917 123.839C569.917 128.493 568.845 132.691 566.7 136.433C564.555 140.13 561.612 143.027 557.87 145.126C554.174 147.18 550.09 148.207 545.618 148.207ZM545.618 141.43C548.766 141.43 551.573 140.723 554.037 139.308C556.501 137.848 558.418 135.795 559.787 133.148C561.201 130.455 561.909 127.352 561.909 123.839C561.909 120.325 561.201 117.245 559.787 114.598C558.418 111.951 556.501 109.921 554.037 108.506C551.573 107.091 548.766 106.384 545.618 106.384C542.469 106.384 539.663 107.091 537.198 108.506C534.734 109.921 532.795 111.951 531.38 114.598C530.011 117.245 529.327 120.325 529.327 123.839C529.327 127.352 530.011 130.455 531.38 133.148C532.795 135.795 534.734 137.848 537.198 139.308C539.663 140.723 542.469 141.43 545.618 141.43ZM612.026 113.845C610.794 111.472 609.083 109.692 606.892 108.506C604.702 107.274 602.169 106.658 599.294 106.658C596.146 106.658 593.339 107.365 590.875 108.78C588.411 110.194 586.472 112.202 585.057 114.803C583.688 117.404 583.003 120.416 583.003 123.839C583.003 127.261 583.688 130.296 585.057 132.942C586.472 135.544 588.411 137.551 590.875 138.966C593.339 140.381 596.146 141.088 599.294 141.088C603.538 141.088 606.984 139.901 609.63 137.529C612.277 135.156 613.897 131.939 614.49 127.877H596.625V121.648H622.841V127.74C622.339 131.437 621.016 134.836 618.871 137.939C616.772 141.042 614.011 143.529 610.589 145.4C607.212 147.226 603.447 148.138 599.294 148.138C594.822 148.138 590.738 147.111 587.042 145.058C583.346 142.959 580.402 140.061 578.212 136.365C576.067 132.669 574.995 128.493 574.995 123.839C574.995 119.184 576.067 115.009 578.212 111.312C580.402 107.616 583.346 104.741 587.042 102.688C590.784 100.589 594.868 99.5391 599.294 99.5391C604.36 99.5391 608.855 100.794 612.779 103.304C616.749 105.768 619.624 109.282 621.404 113.845H612.026ZM638.341 100.155V147.728H630.537V100.155H638.341ZM656.389 106.452V120.416H672.817V126.782H656.389V141.362H674.87V147.728H648.586V100.087H674.87V106.452H656.389ZM700.156 148.207C696.962 148.207 694.087 147.659 691.532 146.564C688.976 145.423 686.968 143.826 685.508 141.772C684.048 139.719 683.318 137.323 683.318 134.585H691.669C691.851 136.639 692.65 138.327 694.064 139.65C695.525 140.974 697.555 141.636 700.156 141.636C702.849 141.636 704.948 140.997 706.454 139.719C707.96 138.396 708.713 136.707 708.713 134.654C708.713 133.057 708.233 131.756 707.275 130.752C706.362 129.748 705.199 128.972 703.784 128.425C702.415 127.877 700.499 127.284 698.034 126.645C694.931 125.824 692.399 125.002 690.437 124.181C688.52 123.314 686.877 121.991 685.508 120.211C684.139 118.431 683.455 116.058 683.455 113.092C683.455 110.354 684.139 107.958 685.508 105.905C686.877 103.851 688.794 102.277 691.258 101.182C693.722 100.087 696.574 99.5391 699.814 99.5391C704.423 99.5391 708.188 100.703 711.108 103.03C714.074 105.312 715.717 108.46 716.037 112.476H707.412C707.275 110.742 706.454 109.259 704.948 108.027C703.442 106.795 701.457 106.179 698.993 106.179C696.757 106.179 694.931 106.749 693.517 107.89C692.102 109.031 691.395 110.674 691.395 112.818C691.395 114.279 691.828 115.488 692.695 116.446C693.608 117.359 694.749 118.089 696.118 118.637C697.487 119.184 699.358 119.777 701.731 120.416C704.879 121.283 707.435 122.15 709.397 123.017C711.405 123.884 713.093 125.23 714.462 127.056C715.877 128.835 716.584 131.231 716.584 134.243C716.584 136.662 715.923 138.943 714.599 141.088C713.322 143.233 711.428 144.967 708.918 146.29C706.454 147.568 703.533 148.207 700.156 148.207Z" fill="#080A3C"/>
<path d="M101.1 74.3557C112.879 73.3505 125.977 62.0419 125.977 51.236C121.408 52.7438 112.016 53.2464 110.746 43.4456C109.477 33.6448 119.631 31.3831 123.438 32.6396C118.768 19.974 102.623 5.49902 92.7236 0.975586C107.751 2.78496 123.692 15.8024 129.785 22.0849C136.469 29.5402 147.401 47.969 137.654 62.0419C127.906 76.1148 109.223 76.1148 101.1 74.3557Z" fill="#FFB700"/>
<path d="M69.1005 76.0553C58.0664 71.7605 41.2449 76.2353 36.4191 86.0448C41.1988 86.6961 49.8639 90.3923 46.6277 99.8504C43.3915 109.309 33.2563 106.873 30.3956 104.049C28.9369 117.611 36.9815 137.889 43.8584 146.372C31.1613 138.086 22.6482 119.221 19.9788 110.824C17.3009 101.101 15.7062 79.5385 30.751 71.0729C45.7958 62.6073 62.586 70.8672 69.1005 76.0553Z" fill="#080A3C"/>
<path d="M80.2539 92.2297C71.5662 100.275 68.2341 117.359 74.9455 125.989C77.6215 121.975 84.7349 115.799 91.8254 122.846C98.9159 129.892 92.293 137.941 88.5022 139.279C100.061 146.522 121.815 148.155 132.452 145.681C119.447 153.476 98.7588 152.882 90.0403 151.61C80.1251 149.766 60.0363 141.771 59.0024 124.539C57.9685 107.307 72.7393 95.8194 80.2539 92.2297Z" fill="#FF612F"/>
<path d="M99.338 87.6412C100.91 99.3769 112.956 111.942 123.876 111.427C122.137 106.927 121.185 97.5549 131.03 95.8179C140.874 94.0808 143.639 104.131 142.549 108C155.128 102.724 168.994 85.8821 173.098 75.7622C171.978 90.8827 159.576 107.452 153.515 113.846C146.296 120.889 128.189 132.705 113.507 123.624C98.8255 114.543 97.9437 95.8517 99.338 87.6412Z" fill="#13C4A1"/>
<path d="M80.2381 71.3158C85.047 60.496 81.3681 43.4826 71.7964 38.2009C70.921 42.9446 66.8215 51.4264 57.526 47.7491C48.2306 44.0717 51.1403 34.0623 54.0958 31.3375C40.6168 29.2427 19.9832 36.325 11.186 42.7954C20.0602 30.502 39.3045 22.8853 47.8174 20.6137C57.6556 18.3959 79.2694 17.8168 87.0182 33.243C94.7671 48.6693 85.7269 65.0525 80.2381 71.3158Z" fill="#EB4444"/>
</svg>
